# xmcd
#
# Track frame offsets:
#	150
#	9547
#	19133
#	29872
#	41993
#	52306
#	62584
#	71439
#	80044
#	88705
#	98652
#	108285
#	118912
#	129746
#	138800
#	150468
#	161755
#	171361
#	180891
#	190146
#	200166
#
# Disc length: 2777 seconds
#
# Revision: 1
# Processed by: cddbd v1.5.2PL0 Copyright (c) Steve Scherf et al.
# Submitted via: audiograbber 1.83.01
#
DISCID=2c0ad715
DTITLE=Buddy Holly - not fade away
DYEAR=1900
DGENRE=Rockabilly
TTITLE0=Blue Days, Black Nights
TTITLE1=Love me
TTITLE2=you are my one Desire
TTITLE3=Modern Don Juan
TTITLE4=Rock around with Ollie Vee
TTITLE5=That`ll be the day
TTITLE6=I`m looking for someone to love
TTITLE7=Last night
TTITLE8=Words of love
TTITLE9=Mailman, bring me no more Blues
TTITLE10=Everyday
TTITLE11=not fade away
TTITLE12=It`s too late
TTITLE13=Tell me how
TTITLE14=Send me some lovin`
TTITLE15=Peggy Sue
TTITLE16=Oh Boy!
TTITLE17=you`ve got love
TTITLE18=maybe Baby
TTITLE19=an empty Cup (and a broken Date)
TTITLE20=Rock me my baby
EXTD=
EXTT0=
EXTT1=
EXTT2=
EXTT3=
EXTT4=
EXTT5=
EXTT6=
EXTT7=
EXTT8=
EXTT9=
EXTT10=
EXTT11=
EXTT12=
EXTT13=
EXTT14=
EXTT15=
EXTT16=
EXTT17=
EXTT18=
EXTT19=
EXTT20=
PLAYORDER=
